<?xml version="1.0" encoding="UTF-8" standalone="no"?> <svg width="64" height="64" viewBox="0 0 64 64" fill="none" xmlns="http://www.w3.org/2000/svg">
<path d="M32 12.72C28.1868 12.72 24.4592 13.8507 21.2886 15.9692C18.118 18.0877 15.6468 21.0989 14.1876 24.6218C12.7283 28.1448 12.3465 32.0214 13.0904 35.7613C13.8344 39.5013 15.6706 42.9366 18.367 45.633C21.0633 48.3293 24.4987 50.1656 28.2386 50.9095C31.9786 51.6534 35.8552 51.2716 39.3781 49.8124C42.9011 48.3531 45.9122 45.8819 48.0307 42.7114C50.1492 39.5408 51.28 35.8132 51.28 32C51.2747 26.8882 49.2417 21.9874 45.6272 18.3728C42.0126 14.7582 37.1117 12.7253 32 12.72V12.72Z" fill="#F8B64C"/>
<path d="M32 9.29C32.2652 9.29 32.5196 9.18464 32.7071 8.99711C32.8946 8.80957 33 8.55522 33 8.29V4C33 3.73478 32.8946 3.48043 32.7071 3.29289C32.5196 3.10536 32.2652 3 32 3C31.7348 3 31.4804 3.10536 31.2929 3.29289C31.1054 3.48043 31 3.73478 31 4V8.29C31 8.55522 31.1054 8.80957 31.2929 8.99711C31.4804 9.18464 31.7348 9.29 32 9.29Z" fill="#FFE17D"/>
<path d="M51.09 11.4899L48.09 14.4899C47.9963 14.5829 47.9219 14.6935 47.8711 14.8153C47.8203 14.9372 47.7942 15.0679 47.7942 15.1999C47.7942 15.3319 47.8203 15.4626 47.8711 15.5845C47.9219 15.7063 47.9963 15.8169 48.09 15.9099C48.1834 16.0026 48.2942 16.0759 48.4161 16.1257C48.5379 16.1754 48.6684 16.2007 48.8 16.1999C48.9316 16.2007 49.0621 16.1754 49.1839 16.1257C49.3057 16.0759 49.4165 16.0026 49.51 15.9099L52.51 12.9099C52.6983 12.7216 52.8041 12.4662 52.8041 12.1999C52.8041 11.9336 52.6983 11.6782 52.51 11.4899C52.3217 11.3016 52.0663 11.1958 51.8 11.1958C51.5337 11.1958 51.2783 11.3016 51.09 11.4899V11.4899Z" fill="#FFE17D"/>
<path d="M60 31H55.71C55.4447 31 55.1904 31.1054 55.0029 31.2929C54.8153 31.4804 54.71 31.7348 54.71 32C54.71 32.2652 54.8153 32.5196 55.0029 32.7071C55.1904 32.8946 55.4447 33 55.71 33H60C60.2652 33 60.5195 32.8946 60.7071 32.7071C60.8946 32.5196 61 32.2652 61 32C61 31.7348 60.8946 31.4804 60.7071 31.2929C60.5195 31.1054 60.2652 31 60 31Z" fill="#FFE17D"/>
<path d="M49.48 48.06C49.3867 47.9667 49.276 47.8928 49.1542 47.8423C49.0324 47.7918 48.9018 47.7659 48.77 47.7659C48.6381 47.7659 48.5075 47.7918 48.3857 47.8423C48.2639 47.8928 48.1532 47.9667 48.06 48.06C47.9667 48.1532 47.8928 48.2639 47.8423 48.3857C47.7918 48.5075 47.7659 48.6381 47.7659 48.77C47.7659 48.9018 47.7918 49.0324 47.8423 49.1542C47.8928 49.276 47.9667 49.3867 48.06 49.48L51.06 52.48C51.1534 52.5726 51.2642 52.646 51.3861 52.6957C51.5079 52.7455 51.6384 52.7707 51.77 52.77C51.9016 52.7707 52.032 52.7455 52.1539 52.6957C52.2757 52.646 52.3865 52.5726 52.48 52.48C52.5737 52.387 52.6481 52.2764 52.6989 52.1545C52.7496 52.0327 52.7758 51.902 52.7758 51.77C52.7758 51.638 52.7496 51.5072 52.6989 51.3854C52.6481 51.2635 52.5737 51.1529 52.48 51.06L49.48 48.06Z" fill="#FFE17D"/>
<path d="M12.91 11.4899C12.7217 11.3016 12.4663 11.1958 12.2 11.1958C11.9337 11.1958 11.6783 11.3016 11.49 11.4899C11.3017 11.6782 11.1959 11.9336 11.1959 12.1999C11.1959 12.4662 11.3017 12.7216 11.49 12.9099L14.49 15.9099C14.5835 16.0026 14.6943 16.0759 14.8161 16.1257C14.9379 16.1754 15.0684 16.2007 15.2 16.1999C15.3316 16.2007 15.4621 16.1754 15.5839 16.1257C15.7058 16.0759 15.8166 16.0026 15.91 15.9099C16.0037 15.8169 16.0781 15.7063 16.1289 15.5845C16.1797 15.4626 16.2058 15.3319 16.2058 15.1999C16.2058 15.0679 16.1797 14.9372 16.1289 14.8153C16.0781 14.6935 16.0037 14.5829 15.91 14.4899L12.91 11.4899Z" fill="#FFE17D"/>
<path d="M8.29 31H4C3.73478 31 3.48043 31.1054 3.29289 31.2929C3.10536 31.4804 3 31.7348 3 32C3 32.2652 3.10536 32.5196 3.29289 32.7071C3.48043 32.8946 3.73478 33 4 33H8.29C8.55522 33 8.80957 32.8946 8.99711 32.7071C9.18464 32.5196 9.29 32.2652 9.29 32C9.29 31.7348 9.18464 31.4804 8.99711 31.2929C8.80957 31.1054 8.55522 31 8.29 31Z" fill="#FFE17D"/>
<path d="M14.52 48.06L11.52 51.06C11.4263 51.1529 11.3519 51.2635 11.3012 51.3854C11.2504 51.5072 11.2242 51.638 11.2242 51.77C11.2242 51.902 11.2504 52.0327 11.3012 52.1545C11.3519 52.2764 11.4263 52.387 11.52 52.48C11.613 52.5737 11.7236 52.6481 11.8455 52.6989C11.9673 52.7496 12.098 52.7758 12.23 52.7758C12.3621 52.7758 12.4928 52.7496 12.6146 52.6989C12.7365 52.6481 12.8471 52.5737 12.94 52.48L15.94 49.48C16.1283 49.2917 16.2341 49.0363 16.2341 48.77C16.2341 48.5037 16.1283 48.2483 15.94 48.06C15.7517 47.8717 15.4963 47.7659 15.23 47.7659C14.9637 47.7659 14.7083 47.8717 14.52 48.06Z" fill="#FFE17D"/>
<path d="M32 54.71C31.7348 54.71 31.4804 54.8153 31.2929 55.0029C31.1054 55.1904 31 55.4447 31 55.71V60C31 60.2652 31.1054 60.5195 31.2929 60.7071C31.4804 60.8946 31.7348 61 32 61C32.2652 61 32.5196 60.8946 32.7071 60.7071C32.8946 60.5195 33 60.2652 33 60V55.71C33 55.4447 32.8946 55.1904 32.7071 55.0029C32.5196 54.8153 32.2652 54.71 32 54.71Z" fill="#FFE17D"/>
<path d="M32.06 19.5999C31.9237 19.5918 31.7872 19.6116 31.6589 19.6581C31.5305 19.7047 31.4131 19.7771 31.3138 19.8707C31.2145 19.9644 31.1354 20.0775 31.0814 20.2029C31.0275 20.3283 30.9998 20.4634 31 20.5999C31 20.8652 31.1054 21.1195 31.2929 21.3071C31.4804 21.4946 31.7348 21.5999 32 21.5999C34.7566 21.6052 37.3988 22.7026 39.3481 24.6519C41.2973 26.6011 42.3947 29.2433 42.4 31.9999C42.4 32.2652 42.5054 32.5195 42.6929 32.7071C42.8804 32.8946 43.1348 32.9999 43.4 32.9999C43.6652 32.9999 43.9196 32.8946 44.1071 32.7071C44.2946 32.5195 44.4 32.2652 44.4 31.9999C44.3948 28.7232 43.0949 25.5813 40.7836 23.2587C38.4722 20.9361 35.3366 19.621 32.06 19.5999V19.5999Z" fill="#FFE17D"/>
</svg>
