<?xml version="1.0" encoding="utf-8"?>
<!-- Generator: Adobe Illustrator 26.0.3, SVG Export Plug-In . SVG Version: 6.00 Build 0)  -->
<svg version="1.1" id="레이어_1" xmlns="http://www.w3.org/2000/svg" xmlns:xlink="http://www.w3.org/1999/xlink" x="0px"
	 y="0px" viewBox="0 0 100 100" style="enable-background:new 0 0 100 100;" xml:space="preserve">
<g id="레이어_7">
	<path d="M58.5,51.3V26.2c0-4.5-3.8-8.2-8.5-8.2s-8.5,3.7-8.5,8.2v25.1c-5.3,2.9-8.6,8.3-8.5,14.2C33,74.6,40.6,82,50,82
		s17-7.4,17-16.5C67,59.6,63.8,54.2,58.5,51.3z M50,78.2c-7.2,0-13.1-5.7-13.1-12.7c0-4.9,2.9-9.3,7.4-11.4c0.7-0.3,1.1-1,1.1-1.7
		V26.2c0-2.5,2.1-4.4,4.6-4.4c2.5,0,4.6,2,4.6,4.4v26.2c0,0.7,0.4,1.4,1.1,1.7c4.5,2.1,7.4,6.5,7.4,11.4
		C63.1,72.5,57.2,78.2,50,78.2z" style="fill: rgb(255, 255, 255);"/>
	<path d="M50,59c-3.8,0-6.8,3-6.8,6.6c0,3.7,3.1,6.6,6.9,6.6c3.8,0,6.8-3,6.8-6.6C56.8,61.9,53.8,59,50,59z M50,68.5
		c-1.6,0-3-1.3-3-2.9c0-1.6,1.3-2.9,3-2.9c1.6,0,3,1.3,3,2.9l0,0C53,67.2,51.6,68.5,50,68.5C50,68.5,50,68.5,50,68.5L50,68.5z" style="fill: rgb(255, 255, 255);"/>
</g>
</svg>
